Coordinates
version=1
nRows=21
nColumns=28
inDegrees=yes

Units are S.I. units (second, meters, Newtons, ...)
Angles are in degrees.

endheader
time	pelvis_tilt	pelvis_list	pelvis_rotation	pelvis_tx	pelvis_ty	pelvis_tz	hip_flexion_r	hip_adduction_r	hip_rotation_r	knee_angle_r	ankle_angle_r	subtalar_angle_r	mtp_angle_r	hip_flexion_l	hip_adduction_l	hip_rotation_l	knee_angle_l	socket_flexion	socket_adduction	socket_rotation	socket_tx	socket_ty	socket_tz	foot_flex	lumbar_extension	lumbar_bending	lumbar_rotation
      0.54166667	      1.61900175	     -4.69216354	     11.32143240	      0.01775212	      0.96589412	      0.24810701	     23.13416968	      2.61589791	     -8.40419538	    -10.43975569	      4.63027699	    -18.54446435	     -2.34136094	    -23.42978311	    -10.18641445	     25.83389801	      3.22674619	      9.73301589	      0.00000000	      0.00000000	      0.00000000	      0.00000000	      0.00000000	      9.70242065	     -7.93057375	      4.80115320	    -17.61561531
      0.54583333	      1.68901361	     -4.79075223	     11.35573914	      0.02411971	      0.96450875	      0.24810543	     23.50682815	      2.73033013	     -8.47672718	    -11.58598397	      4.17654186	    -18.62615864	     -2.30447582	    -23.82350204	    -10.33193945	     25.74702694	      3.07828738	      9.74261157	      0.00000000	      0.00000000	      0.00000000	      0.00000000	      0.00000000	      9.75612454	     -8.00518329	      5.04126029	    -17.61075338
      0.55000000	      1.49534027	     -4.81883447	     11.18643972	      0.03048859	      0.96273979	      0.24844098	     24.24558071	      2.79040551	     -8.29810255	    -12.90411696	      3.48704594	    -18.98616900	     -1.06708927	    -23.96020101	    -10.27227044	     25.55279687	      2.91180892	      9.79477723	      0.00000000	      0.00000000	      0.00000000	      0.00000000	      0.00000000	      9.78557409	     -7.77366546	      5.09121079	    -17.25993279
      0.55416667	      1.55298525	     -4.92039601	     11.22240565	      0.03693455	      0.96140796	      0.24843678	     24.59387757	      2.91682330	     -8.28855352	    -14.03339530	      3.02625546	    -19.00991423	     -1.04977610	    -24.29747317	    -10.39944341	     25.50999917	      2.69507553	      9.82599401	      0.00000000	      0.00000000	      0.00000000	      0.00000000	      0.00000000	      9.80022396	     -7.82278501	      5.35303626	    -17.35260279
      0.55833333	      1.54930018	     -4.97592364	     11.11266319	      0.04338036	      0.95995851	      0.24870035	     25.09043785	      3.01841594	     -8.26676017	    -15.32899033	      2.46303170	    -19.08271592	     -0.91102249	    -24.59163290	    -10.40249608	     25.31261848	      2.47327669	      9.88465654	      0.00000000	      0.00000000	      0.00000000	      0.00000000	      0.00000000	      9.80083832	     -7.79876452	      5.45082195	    -17.38654612
      0.56250000	      1.57721353	     -5.07984875	     11.10587017	      0.04983626	      0.95867472	      0.24875919	     25.42042476	      3.17727485	     -8.11138183	    -16.39080704	      2.06004197	    -19.07525722	     -0.85264175	    -24.84207805	    -10.48429549	     25.33811268	      2.18141571	      9.95258693	      0.00000000	      0.00000000	      0.00000000	      0.00000000	      0.00000000	      9.74966418	     -7.78717175	      5.70199181	    -17.41225292
      0.56666667	      1.01979907	     -4.92881311	     10.58932668	      0.05616808	      0.95649741	      0.24971368	     26.67377254	      3.14323930	     -7.48950166	    -18.03457442	      1.26779133	    -19.65903042	      0.40068490	    -24.48714206	     -9.96459463	     24.88942822	      1.61765605	      9.94106313	      0.00000000	      0.00000000	      0.00000000	      0.00000000	      0.00000000	      9.72308801	     -7.24236872	      5.39975661	    -16.83093500
      0.57083333	      1.09144712	     -5.05154161	     10.60117982	      0.06274216	      0.95539843	      0.24976067	     26.91048884	      3.32768225	     -7.36267373	    -19.04514672	      0.85405723	    -19.61235548	      0.43896594	    -24.73499952	    -10.06010272	     24.91536345	      1.26870761	     10.03449849	      0.00000000	      0.00000000	      0.00000000	      0.00000000	      0.00000000	      9.61260706	     -7.27241605	      5.69004197	    -16.89776588
      0.57500000	      0.78529265	     -4.96542897	     10.21836139	      0.06913524	      0.95372446	      0.25044487	     27.76238908	      3.36844157	     -6.91745592	    -20.43249565	     -0.17601628	    -20.21799358	      2.12259100	    -24.54518277	     -9.66640787	     24.52902008	      0.59091657	     10.02157388	      0.00000000	      0.00000000	      0.00000000	      0.00000000	      0.00000000	      9.50987776	     -7.01695966	      5.55951723	    -16.60569409
      0.57916667	      0.86263831	     -5.07396216	     10.12776765	      0.07577248	      0.95269076	      0.25065270	     28.01526905	      3.56274374	     -6.82787964	    -21.51166628	     -0.54106522	    -20.16576666	      2.15546439	    -24.75932138	     -9.67151070	     24.39227685	      0.13607823	     10.14242502	      0.00000000	      0.00000000	      0.00000000	      0.00000000	      0.00000000	      9.33498100	     -7.09283028	      5.84031850	    -16.65625543
      0.58333333	      0.93919830	     -5.19428872	     10.06933970	      0.08247283	      0.95175707	      0.25081667	     28.21738424	      3.77955287	     -6.64062194	    -22.52396899	     -0.85683633	    -20.09914214	      2.19168889	    -24.93026791	     -9.69123476	     24.32709826	     -0.37073193	     10.25096114	      0.00000000	      0.00000000	      0.00000000	      0.00000000	      0.00000000	      9.13359978	     -7.09505567	      6.05754946	    -16.67181569
      0.58750000	      0.93615465	     -5.20953341	      9.77764312	      0.08905377	      0.95068635	      0.25128058	     28.61952402	      3.92783449	     -6.43533770	    -23.74564581	     -1.26901524	    -20.05364702	      2.30216092	    -24.97262947	     -9.44197130	     23.83172416	     -1.12898493	     10.29207012	      0.00000000	      0.00000000	      0.00000000	      0.00000000	      0.00000000	      8.90390948	     -7.19860461	      6.16504418	    -16.60188962
      0.59166667	      0.47375182	     -4.99656796	      9.25569272	      0.09546167	      0.94906164	      0.25224441	     29.54646965	      3.96911240	     -5.54871422	    -25.09075154	     -1.54780493	    -20.24939642	      3.01070488	    -24.43673718	     -8.78026659	     23.53365800	     -2.16245443	     10.25473461	      0.00000000	      0.00000000	      0.00000000	      0.00000000	      0.00000000	      8.65260721	     -6.72559240	      5.83295648	    -15.85436049
      0.59583333	      0.56728591	     -5.14940313	      9.18016561	      0.10229743	      0.94837688	      0.25239793	     29.64836082	      4.21731632	     -5.45819918	    -25.99923824	     -1.76475387	    -20.20332873	      3.04952031	    -24.51409111	     -8.78355696	     23.40628368	     -2.81815907	     10.41363189	      0.00000000	      0.00000000	      0.00000000	      0.00000000	      0.00000000	      8.29929233	     -6.77075680	      6.14063102	    -15.90137518
      0.60000000	      0.53041454	     -5.06935555	      8.81569943	      0.10872917	      0.94749422	      0.25299132	     29.99190806	      4.35828025	     -4.95603237	    -27.10614060	     -1.93274555	    -20.13545906	      3.38805058	    -24.30706888	     -8.33673867	     22.89646232	     -4.01911304	     10.33874421	      0.00000000	      0.00000000	      0.00000000	      0.00000000	      0.00000000	      7.96581347	     -6.83860985	      6.04567961	    -15.67492535
      0.60416667	      0.35034321	     -5.07184070	      8.57053784	      0.11546236	      0.94653156	      0.25337720	     30.43341854	      4.47638692	     -4.69616404	    -28.16306025	     -2.01012708	    -20.08509243	      3.87326736	    -23.92641528	     -8.01918561	     22.54956351	     -5.10643044	     10.38357439	      0.00000000	      0.00000000	      0.00000000	      0.00000000	      0.00000000	      7.57864714	     -6.62335264	      6.08602021	    -15.35345344
      0.60833333	      0.47242180	     -5.22746291	      8.46698171	      0.12239626	      0.94610345	      0.25343733	     30.40725543	      4.72655076	     -4.63613300	    -28.96331925	     -2.09885863	    -20.04219948	      3.91894150	    -23.90165382	     -7.96576133	     22.29906598	     -5.98717005	     10.52734152	      0.00000000	      0.00000000	      0.00000000	      0.00000000	      0.00000000	      7.05923258	     -6.67211180	      6.43485429	    -15.39648489
      0.61250000	      0.60167492	     -5.36053236	      8.33997529	      0.12920578	      0.94577546	      0.25355468	     30.35785857	      4.96783076	     -4.55802727	    -29.73083366	     -2.11375356	    -19.98830486	      3.98891197	    -23.75573761	     -7.84811155	     21.81800380	     -7.17359182	     10.55591616	      0.00000000	      0.00000000	      0.00000000	      0.00000000	      0.00000000	      6.52615894	     -6.79875285	      6.72265552	    -15.40867609
      0.61666667	      0.57310944	     -5.28525914	      8.00694901	      0.13562749	      0.94522308	      0.25412721	     30.54016968	      5.11780951	     -4.08911487	    -30.64790392	     -1.85386312	    -19.72172197	      4.33750158	    -23.31907750	     -7.39177327	     21.24916530	     -8.71467792	     10.47669108	      0.00000000	      0.00000000	      0.00000000	      0.00000000	      0.00000000	      6.11009838	     -6.88833398	      6.57401873	    -15.08880649
      0.62083333	      0.46999356	     -5.30892214	      7.78187254	      0.14240145	      0.94463877	      0.25437024	     30.74210737	      5.23717081	     -3.93873899	    -31.49852596	     -1.59811220	    -19.36558704	      4.78331436	    -22.81316667	     -7.08617889	     20.68985179	    -10.10517881	     10.49904694	      0.00000000	      0.00000000	      0.00000000	      0.00000000	      0.00000000	      5.58947452	     -6.72985202	      6.67744929	    -14.79094047
      0.62500000	      0.61686707	     -5.46152268	      7.72781416	      0.14935680	      0.94459357	      0.25439553	     30.52857966	      5.46087998	     -3.96849862	    -32.08623126	     -1.55120920	    -19.34315990	      4.83274268	    -22.58516279	     -7.04610299	     20.15312319	    -11.29978384	     10.62833615	      0.00000000	      0.00000000	      0.00000000	      0.00000000	      0.00000000	      4.90549123	     -6.79060800	      6.96545956	    -14.82174956
